<svg xmlns="http://www.w3.org/2000/svg" width="1600" height="900" viewBox="0 0 1600 900">
  <defs>
    <linearGradient id="bg" x1="0" x2="1">
      <stop offset="0" stop-color="#151711"/>
      <stop offset="1" stop-color="#8b7860"/>
    </linearGradient>
    <linearGradient id="metal" x1="0" x2="1">
      <stop offset="0" stop-color="#23251f"/>
      <stop offset="1" stop-color="#e2d0b4"/>
    </linearGradient>
    <filter id="shadow">
      <feDropShadow dx="0" dy="22" stdDeviation="18" flood-opacity=".45"/>
    </filter>
  </defs>
  <rect width="1600" height="900" fill="url(#bg)"/>
  <rect y="610" width="1600" height="290" fill="#4c4335"/>
  <g filter="url(#shadow)">
    <rect x="430" y="170" width="230" height="470" rx="16" fill="#34362e"/>
    <rect x="710" y="160" width="360" height="470" rx="18" fill="#d8cdb9"/>
    <rect x="1130" y="210" width="210" height="390" rx="18" fill="#2d3029"/>
    <rect x="760" y="220" width="250" height="340" rx="12" fill="#f0e6d3"/>
    <rect x="740" y="610" width="330" height="28" rx="14" fill="#1d201c"/>
    <g stroke="#111" stroke-width="8" opacity=".55">
      <path d="M560 640 C650 520 730 550 835 455"/>
      <path d="M835 455 C955 390 1010 480 1190 380"/>
      <path d="M610 640 C780 650 830 700 1060 670"/>
    </g>
    <g fill="#222">
      <rect x="470" y="210" width="150" height="70" rx="8"/>
      <rect x="470" y="305" width="150" height="70" rx="8"/>
      <rect x="470" y="400" width="150" height="70" rx="8"/>
      <rect x="470" y="495" width="150" height="70" rx="8"/>
    </g>
  </g>
  <g opacity=".55">
    <rect x="1180" y="120" width="420" height="780" fill="#d8ccb5"/>
    <polygon points="1280,500 1600,340 1600,900 1280,900" fill="#bbc8ca"/>
    <rect x="1285" y="310" width="240" height="140" fill="#142a35"/>
  </g>
</svg>
